<?xml version="1.0" encoding="UTF-8"?>
<svg version="1.1" xmlns="http://www.w3.org/2000/svg" width="1024" height="1024">
<path d="M0 0 C124.74 0 249.48 0 378 0 C378 0.66 378 1.32 378 2 C378.66 2 379.32 2 380 2 C380 2.66 380 3.32 380 4 C380.66 4 381.32 4 382 4 C382 4.66 382 5.32 382 6 C382.66 6 383.32 6 384 6 C384 6.66 384 7.32 384 8 C384.66 8 385.32 8 386 8 C386 8.66 386 9.32 386 10 C386.66 10 387.32 10 388 10 C388 10.66 388 11.32 388 12 C388.66 12 389.32 12 390 12 C390 12.66 390 13.32 390 14 C390.66 14 391.32 14 392 14 C392 14.66 392 15.32 392 16 C392.66 16 393.32 16 394 16 C394 16.66 394 17.32 394 18 C394.66 18 395.32 18 396 18 C396 18.66 396 19.32 396 20 C396.66 20 397.32 20 398 20 C398 20.66 398 21.32 398 22 C398.66 22 399.32 22 400 22 C400 22.66 400 23.32 400 24 C400.66 24 401.32 24 402 24 C402 24.66 402 25.32 402 26 C402.66 26 403.32 26 404 26 C404 26.66 404 27.32 404 28 C404.66 28 405.32 28 406 28 C406 28.66 406 29.32 406 30 C406.66 30 407.32 30 408 30 C408 30.66 408 31.32 408 32 C408.66 32 409.32 32 410 32 C410 32.66 410 33.32 410 34 C410.66 34 411.32 34 412 34 C412 34.66 412 35.32 412 36 C412.66 36 413.32 36 414 36 C414 36.66 414 37.32 414 38 C414.66 38 415.32 38 416 38 C416 38.66 416 39.32 416 40 C416.66 40 417.32 40 418 40 C418 40.66 418 41.32 418 42 C418.66 42 419.32 42 420 42 C420 42.66 420 43.32 420 44 C420.66 44 421.32 44 422 44 C422 44.66 422 45.32 422 46 C422.66 46 423.32 46 424 46 C424 46.66 424 47.32 424 48 C424.66 48 425.32 48 426 48 C426 48.66 426 49.32 426 50 C426.66 50 427.32 50 428 50 C428 50.66 428 51.32 428 52 C428.66 52 429.32 52 430 52 C430 52.66 430 53.32 430 54 C430.66 54 431.32 54 432 54 C432 54.66 432 55.32 432 56 C432.66 56 433.32 56 434 56 C434 56.66 434 57.32 434 58 C434.66 58 435.32 58 436 58 C436 58.66 436 59.32 436 60 C436.66 60 437.32 60 438 60 C438 60.66 438 61.32 438 62 C438.66 62 439.32 62 440 62 C440 62.66 440 63.32 440 64 C440.66 64 441.32 64 442 64 C442 64.66 442 65.32 442 66 C442.66 66 443.32 66 444 66 C444 66.66 444 67.32 444 68 C444.66 68 445.32 68 446 68 C446 68.66 446 69.32 446 70 C446.66 70 447.32 70 448 70 C448 70.66 448 71.32 448 72 C448.66 72 449.32 72 450 72 C450 72.66 450 73.32 450 74 C450.66 74 451.32 74 452 74 C452 74.66 452 75.32 452 76 C452.66 76 453.32 76 454 76 C454 76.66 454 77.32 454 78 C454.66 78 455.32 78 456 78 C456 78.66 456 79.32 456 80 C456.66 80 457.32 80 458 80 C458 80.66 458 81.32 458 82 C458.66 82 459.32 82 460 82 C460 82.66 460 83.32 460 84 C460.66 84 461.32 84 462 84 C462 84.66 462 85.32 462 86 C462.66 86 463.32 86 464 86 C464 86.66 464 87.32 464 88 C464.66 88 465.32 88 466 88 C466 88.66 466 89.32 466 90 C466.66 90 467.32 90 468 90 C468 90.66 468 91.32 468 92 C468.66 92 469.32 92 470 92 C470 92.66 470 93.32 470 94 C470.66 94 471.32 94 472 94 C472 94.66 472 95.32 472 96 C472.66 96 473.32 96 474 96 C474 96.66 474 97.32 474 98 C474.66 98 475.32 98 476 98 C476 98.66 476 99.32 476 100 C476.66 100 477.32 100 478 100 C478 100.66 478 101.32 478 102 C478.66 102 479.32 102 480 102 C480 102.66 480 103.32 480 104 C480.66 104 481.32 104 482 104 C482 104.66 482 105.32 482 106 C482.66 106 483.32 106 484 106 C484 106.66 484 107.32 484 108 C484.66 108 485.32 108 486 108 C486 108.66 486 109.32 486 110 C486.66 110 487.32 110 488 110 C488 110.66 488 111.32 488 112 C488.66 112 489.32 112 490 112 C490 112.66 490 113.32 490 114 C490.66 114 491.32 114 492 114 C492 114.66 492 115.32 492 116 C492.66 116 493.32 116 494 116 C494 116.66 494 117.32 494 118 C494.66 118 495.32 118 496 118 C496 118.66 496 119.32 496 120 C496.66 120 497.32 120 498 120 C498 120.66 498 121.32 498 122 C498.66 122 499.32 122 500 122 C500 122.66 500 123.32 500 124 C500.66 124 501.32 124 502 124 C502 124.66 502 125.32 502 126 C502.66 126 503.32 126 504 126 C504 126.66 504 127.32 504 128 C504.66 128 505.32 128 506 128 C506 128.66 506 129.32 506 130 C506.66 130 507.32 130 508 130 C508 130.66 508 131.32 508 132 C508.66 132 509.32 132 510 132 C510 132.66 510 133.32 510 134 C510.66 134 511.32 134 512 134 C512 134.66 512 135.32 512 136 C512.66 136 513.32 136 514 136 C514 136.66 514 137.32 514 138 C514.66 138 515.32 138 516 138 C516 138.66 516 139.32 516 140 C516.66 140 517.32 140 518 140 C518 140.66 518 141.32 518 142 C518.66 142 519.32 142 520 142 C520 142.66 520 143.32 520 144 C520.66 144 521.32 144 522 144 C522 144.66 522 145.32 522 146 C522.66 146 523.32 146 524 146 C524 146.66 524 147.32 524 148 C524.66 148 525.32 148 526 148 C526 148.66 526 149.32 526 150 C526.66 150 527.32 150 528 150 C528 150.66 528 151.32 528 152 C528.66 152 529.32 152 530 152 C530 152.66 530 153.32 530 154 C530.66 154 531.32 154 532 154 C532 154.66 532 155.32 532 156 C532.66 156 533.32 156 534 156 C534 156.66 534 157.32 534 158 C534.66 158 535.32 158 536 158 C536 158.66 536 159.32 536 160 C536.66 160 537.32 160 538 160 C538 160.66 538 161.32 538 162 C538.66 162 539.32 162 540 162 C540 162.66 540 163.32 540 164 C540.66 164 541.32 164 542 164 C542 164.66 542 165.32 542 166 C542.66 166 543.32 166 544 166 C544 166.66 544 167.32 544 168 C544.66 168 545.32 168 546 168 C546 168.66 546 169.32 546 170 C546.66 170 547.32 170 548 170 C548 170.66 548 171.32 548 172 C548.66 172 549.32 172 550 172 C550 172.66 550 173.32 550 174 C550.66 174 551.32 174 552 174 C552 174.66 552 175.32 552 176 C552.66 176 553.32 176 554 176 C554 176.66 554 177.32 554 178 C554.66 178 555.32 178 556 178 C556 178.66 556 179.32 556 180 C556.66 180 557.32 180 558 180 C558 180.66 558 181.32 558 182 C558.66 182 559.32 182 560 182 C560 182.66 560 183.32 560 184 C560.66 184 561.32 184 562 184 C562 184.66 562 185.32 562 186 C562.66 186 563.32 186 564 186 C564 186.66 564 187.32 564 188 C564.66 188 565.32 188 566 188 C566 188.66 566 189.32 566 190 C566.66 190 567.32 190 568 190 C568 190.66 568 191.32 568 192 C568.66 192 569.32 192 570 192 C570 192.66 570 193.32 570 194 C570.66 194 571.32 194 572 194 C572 194.66 572 195.32 572 196 C572.66 196 573.32 196 574 196 C574 196.66 574 197.32 574 198 C574.66 198 575.32 198 576 198 C576 198.66 576 199.32 576 200 C576.66 200 577.32 200 578 200 C578 200.66 578 201.32 578 202 C578.66 202 579.32 202 580 202 C580 202.66 580 203.32 580 204 C580.66 204 581.32 204 582 204 C582 204.66 582 205.32 582 206 C582.66 206 583.32 206 584 206 C584 206.66 584 207.32 584 208 C584.66 208 585.32 208 586 208 C586 208.66 586 209.32 586 210 C586.66 210 587.32 210 588 210 C588 210.66 588 211.32 588 212 C588.66 212 589.32 212 590 212 C590 212.66 590 213.32 590 214 C590.66 214 591.32 214 592 214 C592 214.66 592 215.32 592 216 C592.66 216 593.32 216 594 216 C594 216.66 594 217.32 594 218 C594.66 218 595.32 218 596 218 C596 218.66 596 219.32 596 220 C596.66 220 597.32 220 598 220 C598 220.66 598 221.32 598 222 C598.66 222 599.32 222 600 222 C600 222.66 600 223.32 600 224 C600.66 224 601.32 224 602 224 C602 224.66 602 225.32 602 226 C602.66 226 603.32 226 604 226 C604 226.66 604 227.32 604 228 C604.66 228 605.32 228 606 228 C606 228.66 606 229.32 606 230 C606.66 230 607.32 230 608 230 C608 230.66 608 231.32 608 232 C608.66 232 609.32 232 610 232 C610 232.66 610 233.32 610 234 C610.66 234 611.32 234 612 234 C612 234.66 612 235.32 612 236 C612.66 236 613.32 236 614 236 C614 236.66 614 237.32 614 238 C614.66 238 615.32 238 616 238 C616 238.66 616 239.32 616 240 C616.66 240 617.32 240 618 240 C618 240.66 618 241.32 618 242 C618.66 242 619.32 242 620 242 C620 242.66 620 243.32 620 244 C620.66 244 621.32 244 622 244 C622 244.66 622 245.32 622 246 C622.66 246 623.32 246 624 246 C624 246.66 624 247.32 624 248 C624.66 248 625.32 248 626 248 C626 248.66 626 249.32 626 250 C626.66 250 627.32 250 628 250 C628 250.66 628 251.32 628 252 C628.66 252 629.32 252 630 252 C630 252.66 630 253.32 630 254 C630.66 254 631.32 254 632 254 C632 463.22 632 672.44 632 888 C631.34 888 630.68 888 630 888 C630 890.64 630 893.28 630 896 C629.34 896 628.68 896 628 896 C628 897.32 628 898.64 628 900 C627.34 900 626.68 900 626 900 C626 901.32 626 902.64 626 904 C625.34 904 624.68 904 624 904 C624 905.32 624 906.64 624 908 C623.34 908 622.68 908 622 908 C622 909.32 622 910.64 622 912 C621.34 912 620.68 912 620 912 C620 912.66 620 913.32 620 914 C619.34 914 618.68 914 618 914 C618 914.66 618 915.32 618 916 C617.34 916 616.68 916 616 916 C616 917.32 616 918.64 616 920 C615.34 920 614.68 920 614 920 C614 920.66 614 921.32 614 922 C613.34 922 612.68 922 612 922 C612 922.66 612 923.32 612 924 C610.68 924 609.36 924 608 924 C608 924.66 608 925.32 608 926 C607.34 926 606.68 926 606 926 C606 926.66 606 927.32 606 928 C605.34 928 604.68 928 604 928 C604 928.66 604 929.32 604 930 C602.68 930 601.36 930 600 930 C600 930.66 600 931.32 600 932 C598.68 932 597.36 932 596 932 C596 932.66 596 933.32 596 934 C594.68 934 593.36 934 592 934 C592 934.66 592 935.32 592 936 C590.68 936 589.36 936 588 936 C588 936.66 588 937.32 588 938 C585.36 938 582.72 938 580 938 C580 938.66 580 939.32 580 940 C388.6 940 197.2 940 0 940 C0 939.34 0 938.68 0 938 C-2.64 938 -5.28 938 -8 938 C-8 937.34 -8 936.68 -8 936 C-9.32 936 -10.64 936 -12 936 C-12 935.34 -12 934.68 -12 934 C-13.32 934 -14.64 934 -16 934 C-16 933.34 -16 932.68 -16 932 C-17.32 932 -18.64 932 -20 932 C-20 931.34 -20 930.68 -20 930 C-21.32 930 -22.64 930 -24 930 C-24 929.34 -24 928.68 -24 928 C-24.66 928 -25.32 928 -26 928 C-26 927.34 -26 926.68 -26 926 C-26.66 926 -27.32 926 -28 926 C-28 925.34 -28 924.68 -28 924 C-29.32 924 -30.64 924 -32 924 C-32 923.34 -32 922.68 -32 922 C-32.66 922 -33.32 922 -34 922 C-34 921.34 -34 920.68 -34 920 C-34.66 920 -35.32 920 -36 920 C-36 918.68 -36 917.36 -36 916 C-36.66 916 -37.32 916 -38 916 C-38 915.34 -38 914.68 -38 914 C-38.66 914 -39.32 914 -40 914 C-40 913.34 -40 912.68 -40 912 C-40.66 912 -41.32 912 -42 912 C-42 910.68 -42 909.36 -42 908 C-42.66 908 -43.32 908 -44 908 C-44 906.68 -44 905.36 -44 904 C-44.66 904 -45.32 904 -46 904 C-46 902.68 -46 901.36 -46 900 C-46.66 900 -47.32 900 -48 900 C-48 898.68 -48 897.36 -48 896 C-48.66 896 -49.32 896 -50 896 C-50 893.36 -50 890.72 -50 888 C-50.66 888 -51.32 888 -52 888 C-52 612.12 -52 336.24 -52 52 C-51.34 52 -50.68 52 -50 52 C-50 49.36 -50 46.72 -50 44 C-49.34 44 -48.68 44 -48 44 C-48 42.68 -48 41.36 -48 40 C-47.34 40 -46.68 40 -46 40 C-46 38.02 -46 36.04 -46 34 C-45.34 34 -44.68 34 -44 34 C-44 33.34 -44 32.68 -44 32 C-43.34 32 -42.68 32 -42 32 C-42 30.68 -42 29.36 -42 28 C-41.34 28 -40.68 28 -40 28 C-40 27.34 -40 26.68 -40 26 C-39.34 26 -38.68 26 -38 26 C-38 24.68 -38 23.36 -38 22 C-37.34 22 -36.68 22 -36 22 C-36 21.34 -36 20.68 -36 20 C-35.34 20 -34.68 20 -34 20 C-34 19.34 -34 18.68 -34 18 C-33.34 18 -32.68 18 -32 18 C-32 17.34 -32 16.68 -32 16 C-31.34 16 -30.68 16 -30 16 C-30 15.34 -30 14.68 -30 14 C-28.68 14 -27.36 14 -26 14 C-26 13.34 -26 12.68 -26 12 C-25.34 12 -24.68 12 -24 12 C-24 11.34 -24 10.68 -24 10 C-22.68 10 -21.36 10 -20 10 C-20 9.34 -20 8.68 -20 8 C-19.34 8 -18.68 8 -18 8 C-18 7.34 -18 6.68 -18 6 C-16.02 6 -14.04 6 -12 6 C-12 5.34 -12 4.68 -12 4 C-10.68 4 -9.36 4 -8 4 C-8 3.34 -8 2.68 -8 2 C-5.36 2 -2.72 2 0 2 C0 1.34 0 0.68 0 0 Z " fill="#6D43B9" transform="translate(222,42)"/>
<path d="M0 0 C0.66 0 1.32 0 2 0 C2 0.66 2 1.32 2 2 C2.66 2 3.32 2 4 2 C4 2.66 4 3.32 4 4 C4.66 4 5.32 4 6 4 C6 4.66 6 5.32 6 6 C6.66 6 7.32 6 8 6 C8 6.66 8 7.32 8 8 C8.66 8 9.32 8 10 8 C10 8.66 10 9.32 10 10 C10.66 10 11.32 10 12 10 C12 10.66 12 11.32 12 12 C12.66 12 13.32 12 14 12 C14 12.66 14 13.32 14 14 C14.66 14 15.32 14 16 14 C16 14.66 16 15.32 16 16 C16.66 16 17.32 16 18 16 C18 16.66 18 17.32 18 18 C18.66 18 19.32 18 20 18 C20 18.66 20 19.32 20 20 C20.66 20 21.32 20 22 20 C22 20.66 22 21.32 22 22 C22.66 22 23.32 22 24 22 C24 22.66 24 23.32 24 24 C24.66 24 25.32 24 26 24 C26 24.66 26 25.32 26 26 C26.66 26 27.32 26 28 26 C28 26.66 28 27.32 28 28 C28.66 28 29.32 28 30 28 C30 28.66 30 29.32 30 30 C30.66 30 31.32 30 32 30 C32 30.66 32 31.32 32 32 C32.66 32 33.32 32 34 32 C34 32.66 34 33.32 34 34 C34.66 34 35.32 34 36 34 C36 34.66 36 35.32 36 36 C36.66 36 37.32 36 38 36 C38 36.66 38 37.32 38 38 C38.66 38 39.32 38 40 38 C40 38.66 40 39.32 40 40 C40.66 40 41.32 40 42 40 C42 40.66 42 41.32 42 42 C42.66 42 43.32 42 44 42 C44 42.66 44 43.32 44 44 C44.66 44 45.32 44 46 44 C46 44.66 46 45.32 46 46 C46.66 46 47.32 46 48 46 C48 46.66 48 47.32 48 48 C48.66 48 49.32 48 50 48 C50 48.66 50 49.32 50 50 C50.66 50 51.32 50 52 50 C52 50.66 52 51.32 52 52 C52.66 52 53.32 52 54 52 C54 52.66 54 53.32 54 54 C54.66 54 55.32 54 56 54 C56 54.66 56 55.32 56 56 C56.66 56 57.32 56 58 56 C58 56.66 58 57.32 58 58 C58.66 58 59.32 58 60 58 C60 58.66 60 59.32 60 60 C60.66 60 61.32 60 62 60 C62 60.66 62 61.32 62 62 C62.66 62 63.32 62 64 62 C64 62.66 64 63.32 64 64 C64.66 64 65.32 64 66 64 C66 64.66 66 65.32 66 66 C66.66 66 67.32 66 68 66 C68 66.66 68 67.32 68 68 C68.66 68 69.32 68 70 68 C70 68.66 70 69.32 70 70 C70.66 70 71.32 70 72 70 C72 70.66 72 71.32 72 72 C72.66 72 73.32 72 74 72 C74 72.66 74 73.32 74 74 C74.66 74 75.32 74 76 74 C76 74.66 76 75.32 76 76 C76.66 76 77.32 76 78 76 C78 76.66 78 77.32 78 78 C78.66 78 79.32 78 80 78 C80 78.66 80 79.32 80 80 C80.66 80 81.32 80 82 80 C82 80.66 82 81.32 82 82 C82.66 82 83.32 82 84 82 C84 82.66 84 83.32 84 84 C84.66 84 85.32 84 86 84 C86 84.66 86 85.32 86 86 C86.66 86 87.32 86 88 86 C88 86.66 88 87.32 88 88 C88.66 88 89.32 88 90 88 C90 88.66 90 89.32 90 90 C90.66 90 91.32 90 92 90 C92 90.66 92 91.32 92 92 C92.66 92 93.32 92 94 92 C94 92.66 94 93.32 94 94 C94.66 94 95.32 94 96 94 C96 94.66 96 95.32 96 96 C96.66 96 97.32 96 98 96 C98 96.66 98 97.32 98 98 C98.66 98 99.32 98 100 98 C100 98.66 100 99.32 100 100 C100.66 100 101.32 100 102 100 C102 100.66 102 101.32 102 102 C102.66 102 103.32 102 104 102 C104 102.66 104 103.32 104 104 C104.66 104 105.32 104 106 104 C106 104.66 106 105.32 106 106 C106.66 106 107.32 106 108 106 C108 106.66 108 107.32 108 108 C108.66 108 109.32 108 110 108 C110 108.66 110 109.32 110 110 C110.66 110 111.32 110 112 110 C112 110.66 112 111.32 112 112 C112.66 112 113.32 112 114 112 C114 112.66 114 113.32 114 114 C114.66 114 115.32 114 116 114 C116 114.66 116 115.32 116 116 C116.66 116 117.32 116 118 116 C118 116.66 118 117.32 118 118 C118.66 118 119.32 118 120 118 C120 118.66 120 119.32 120 120 C120.66 120 121.32 120 122 120 C122 120.66 122 121.32 122 122 C122.66 122 123.32 122 124 122 C124 122.66 124 123.32 124 124 C124.66 124 125.32 124 126 124 C126 124.66 126 125.32 126 126 C126.66 126 127.32 126 128 126 C128 126.66 128 127.32 128 128 C128.66 128 129.32 128 130 128 C130 128.66 130 129.32 130 130 C130.66 130 131.32 130 132 130 C132 130.66 132 131.32 132 132 C132.66 132 133.32 132 134 132 C134 132.66 134 133.32 134 134 C134.66 134 135.32 134 136 134 C136 134.66 136 135.32 136 136 C136.66 136 137.32 136 138 136 C138 136.66 138 137.32 138 138 C138.66 138 139.32 138 140 138 C140 138.66 140 139.32 140 140 C140.66 140 141.32 140 142 140 C142 140.66 142 141.32 142 142 C142.66 142 143.32 142 144 142 C144 142.66 144 143.32 144 144 C144.66 144 145.32 144 146 144 C146 144.66 146 145.32 146 146 C146.66 146 147.32 146 148 146 C148 146.66 148 147.32 148 148 C148.66 148 149.32 148 150 148 C150 148.66 150 149.32 150 150 C150.66 150 151.32 150 152 150 C152 150.66 152 151.32 152 152 C152.66 152 153.32 152 154 152 C154 152.66 154 153.32 154 154 C154.66 154 155.32 154 156 154 C156 154.66 156 155.32 156 156 C156.66 156 157.32 156 158 156 C158 156.66 158 157.32 158 158 C158.66 158 159.32 158 160 158 C160 158.66 160 159.32 160 160 C160.66 160 161.32 160 162 160 C162 160.66 162 161.32 162 162 C162.66 162 163.32 162 164 162 C164 162.66 164 163.32 164 164 C164.66 164 165.32 164 166 164 C166 164.66 166 165.32 166 166 C166.66 166 167.32 166 168 166 C168 166.66 168 167.32 168 168 C168.66 168 169.32 168 170 168 C170 168.66 170 169.32 170 170 C170.66 170 171.32 170 172 170 C172 170.66 172 171.32 172 172 C172.66 172 173.32 172 174 172 C174 172.66 174 173.32 174 174 C174.66 174 175.32 174 176 174 C176 174.66 176 175.32 176 176 C176.66 176 177.32 176 178 176 C178 176.66 178 177.32 178 178 C178.66 178 179.32 178 180 178 C180 178.66 180 179.32 180 180 C180.66 180 181.32 180 182 180 C182 180.66 182 181.32 182 182 C182.66 182 183.32 182 184 182 C184 182.66 184 183.32 184 184 C184.66 184 185.32 184 186 184 C186 184.66 186 185.32 186 186 C186.66 186 187.32 186 188 186 C188 186.66 188 187.32 188 188 C188.66 188 189.32 188 190 188 C190 188.66 190 189.32 190 190 C190.66 190 191.32 190 192 190 C192 190.66 192 191.32 192 192 C192.66 192 193.32 192 194 192 C194 192.66 194 193.32 194 194 C194.66 194 195.32 194 196 194 C196 194.66 196 195.32 196 196 C196.66 196 197.32 196 198 196 C198 196.66 198 197.32 198 198 C198.66 198 199.32 198 200 198 C200 198.66 200 199.32 200 200 C200.66 200 201.32 200 202 200 C202 200.66 202 201.32 202 202 C202.66 202 203.32 202 204 202 C204 202.66 204 203.32 204 204 C204.66 204 205.32 204 206 204 C206 204.66 206 205.32 206 206 C206.66 206 207.32 206 208 206 C208 206.66 208 207.32 208 208 C208.66 208 209.32 208 210 208 C210 208.66 210 209.32 210 210 C210.66 210 211.32 210 212 210 C212 210.66 212 211.32 212 212 C212.66 212 213.32 212 214 212 C214 212.66 214 213.32 214 214 C214.66 214 215.32 214 216 214 C216 214.66 216 215.32 216 216 C216.66 216 217.32 216 218 216 C218 216.66 218 217.32 218 218 C218.66 218 219.32 218 220 218 C220 218.66 220 219.32 220 220 C220.66 220 221.32 220 222 220 C222 220.66 222 221.32 222 222 C222.66 222 223.32 222 224 222 C224 222.66 224 223.32 224 224 C224.66 224 225.32 224 226 224 C226 224.66 226 225.32 226 226 C226.66 226 227.32 226 228 226 C228 226.66 228 227.32 228 228 C228.66 228 229.32 228 230 228 C230 228.66 230 229.32 230 230 C230.66 230 231.32 230 232 230 C232 230.66 232 231.32 232 232 C232.66 232 233.32 232 234 232 C234 232.66 234 233.32 234 234 C234.66 234 235.32 234 236 234 C236 234.66 236 235.32 236 236 C236.66 236 237.32 236 238 236 C238 236.66 238 237.32 238 238 C238.66 238 239.32 238 240 238 C240 238.66 240 239.32 240 240 C240.66 240 241.32 240 242 240 C242 240.66 242 241.32 242 242 C242.66 242 243.32 242 244 242 C244 242.66 244 243.32 244 244 C244.66 244 245.32 244 246 244 C246 244.66 246 245.32 246 246 C246.66 246 247.32 246 248 246 C248 246.66 248 247.32 248 248 C248.66 248 249.32 248 250 248 C250 248.66 250 249.32 250 250 C250.66 250 251.32 250 252 250 C252 250.66 252 251.32 252 252 C252.66 252 253.32 252 254 252 C254 253.32 254 254.64 254 256 C186.02 256 118.04 256 48 256 C48 255.34 48 254.68 48 254 C46.02 254 44.04 254 42 254 C42 253.34 42 252.68 42 252 C40.68 252 39.36 252 38 252 C38 251.34 38 250.68 38 250 C36.68 250 35.36 250 34 250 C34 249.34 34 248.68 34 248 C32.68 248 31.36 248 30 248 C30 247.34 30 246.68 30 246 C28.68 246 27.36 246 26 246 C26 245.34 26 244.68 26 244 C25.34 244 24.68 244 24 244 C24 243.34 24 242.68 24 242 C23.34 242 22.68 242 22 242 C22 241.34 22 240.68 22 240 C21.34 240 20.68 240 20 240 C20 239.34 20 238.68 20 238 C19.34 238 18.68 238 18 238 C18 237.34 18 236.68 18 236 C17.34 236 16.68 236 16 236 C16 235.34 16 234.68 16 234 C15.34 234 14.68 234 14 234 C14 233.34 14 232.68 14 232 C13.34 232 12.68 232 12 232 C12 231.34 12 230.68 12 230 C11.34 230 10.68 230 10 230 C10 228.68 10 227.36 10 226 C9.34 226 8.68 226 8 226 C8 224.68 8 223.36 8 222 C7.34 222 6.68 222 6 222 C6 220.68 6 219.36 6 218 C5.34 218 4.68 218 4 218 C4 216.68 4 215.36 4 214 C3.34 214 2.68 214 2 214 C2 212.02 2 210.04 2 208 C1.34 208 0.68 208 0 208 C0 139.36 0 70.72 0 0 Z " fill="#B6A2DC" transform="translate(598,42)"/>
<path d="M0 0 C77.22 0 154.44 0 234 0 C234 14.52 234 29.04 234 44 C156.78 44 79.56 44 0 44 C0 29.48 0 14.96 0 0 Z " fill="#EDECEF" transform="translate(448,618)"/>
<path d="M0 0 C77.22 0 154.44 0 234 0 C234 13.86 234 27.72 234 42 C156.78 42 79.56 42 0 42 C0 28.14 0 14.28 0 0 Z " fill="#F1F1F1" transform="translate(448,726)"/>
<path d="M0 0 C77.22 0 154.44 0 234 0 C234 13.86 234 27.72 234 42 C156.78 42 79.56 42 0 42 C0 28.14 0 14.28 0 0 Z " fill="#F2F2F2" transform="translate(448,512)"/>
<path d="M0 0 C5.94 0 11.88 0 18 0 C18 0.66 18 1.32 18 2 C19.32 2 20.64 2 22 2 C22 2.66 22 3.32 22 4 C23.32 4 24.64 4 26 4 C26 4.66 26 5.32 26 6 C26.66 6 27.32 6 28 6 C28 6.66 28 7.32 28 8 C28.66 8 29.32 8 30 8 C30 8.66 30 9.32 30 10 C30.66 10 31.32 10 32 10 C32 10.66 32 11.32 32 12 C32.66 12 33.32 12 34 12 C34 12.66 34 13.32 34 14 C34.66 14 35.32 14 36 14 C36 15.32 36 16.64 36 18 C36.66 18 37.32 18 38 18 C38 18.66 38 19.32 38 20 C38.66 20 39.32 20 40 20 C40 27.26 40 34.52 40 42 C39.34 42 38.68 42 38 42 C38 43.32 38 44.64 38 46 C37.34 46 36.68 46 36 46 C36 47.32 36 48.64 36 50 C35.34 50 34.68 50 34 50 C34 50.66 34 51.32 34 52 C33.34 52 32.68 52 32 52 C32 52.66 32 53.32 32 54 C31.34 54 30.68 54 30 54 C30 54.66 30 55.32 30 56 C29.34 56 28.68 56 28 56 C28 56.66 28 57.32 28 58 C27.34 58 26.68 58 26 58 C26 58.66 26 59.32 26 60 C24.68 60 23.36 60 22 60 C22 60.66 22 61.32 22 62 C20.68 62 19.36 62 18 62 C18 62.66 18 63.32 18 64 C12.06 64 6.12 64 0 64 C0 63.34 0 62.68 0 62 C-1.98 62 -3.96 62 -6 62 C-6 61.34 -6 60.68 -6 60 C-6.66 60 -7.32 60 -8 60 C-8 59.34 -8 58.68 -8 58 C-9.32 58 -10.64 58 -12 58 C-12 57.34 -12 56.68 -12 56 C-12.66 56 -13.32 56 -14 56 C-14 55.34 -14 54.68 -14 54 C-14.66 54 -15.32 54 -16 54 C-16 53.34 -16 52.68 -16 52 C-16.66 52 -17.32 52 -18 52 C-18 50.68 -18 49.36 -18 48 C-18.66 48 -19.32 48 -20 48 C-20 46.68 -20 45.36 -20 44 C-20.66 44 -21.32 44 -22 44 C-22 42.02 -22 40.04 -22 38 C-22.66 38 -23.32 38 -24 38 C-24 33.38 -24 28.76 -24 24 C-23.34 24 -22.68 24 -22 24 C-22 22.68 -22 21.36 -22 20 C-21.34 20 -20.68 20 -20 20 C-20 18.68 -20 17.36 -20 16 C-19.34 16 -18.68 16 -18 16 C-18 14.68 -18 13.36 -18 12 C-17.34 12 -16.68 12 -16 12 C-16 11.34 -16 10.68 -16 10 C-15.34 10 -14.68 10 -14 10 C-14 9.34 -14 8.68 -14 8 C-13.34 8 -12.68 8 -12 8 C-12 7.34 -12 6.68 -12 6 C-10.68 6 -9.36 6 -8 6 C-8 5.34 -8 4.68 -8 4 C-7.34 4 -6.68 4 -6 4 C-6 3.34 -6 2.68 -6 2 C-4.02 2 -2.04 2 0 2 C0 1.34 0 0.68 0 0 Z " fill="#EFEEF0" transform="translate(354,608)"/>
<path d="M0 0 C4.62 0 9.24 0 14 0 C14 0.66 14 1.32 14 2 C15.98 2 17.96 2 20 2 C20 2.66 20 3.32 20 4 C21.32 4 22.64 4 24 4 C24 4.66 24 5.32 24 6 C25.32 6 26.64 6 28 6 C28 6.66 28 7.32 28 8 C28.66 8 29.32 8 30 8 C30 8.66 30 9.32 30 10 C30.66 10 31.32 10 32 10 C32 10.66 32 11.32 32 12 C32.66 12 33.32 12 34 12 C34 12.66 34 13.32 34 14 C34.66 14 35.32 14 36 14 C36 15.32 36 16.64 36 18 C36.66 18 37.32 18 38 18 C38 19.32 38 20.64 38 22 C38.66 22 39.32 22 40 22 C40 28.6 40 35.2 40 42 C39.34 42 38.68 42 38 42 C38 43.98 38 45.96 38 48 C37.34 48 36.68 48 36 48 C36 48.66 36 49.32 36 50 C35.34 50 34.68 50 34 50 C34 51.32 34 52.64 34 54 C33.34 54 32.68 54 32 54 C32 54.66 32 55.32 32 56 C31.34 56 30.68 56 30 56 C30 56.66 30 57.32 30 58 C28.68 58 27.36 58 26 58 C26 58.66 26 59.32 26 60 C25.34 60 24.68 60 24 60 C24 60.66 24 61.32 24 62 C22.02 62 20.04 62 18 62 C18 62.66 18 63.32 18 64 C11.4 64 4.8 64 -2 64 C-2 63.34 -2 62.68 -2 62 C-3.32 62 -4.64 62 -6 62 C-6 61.34 -6 60.68 -6 60 C-7.32 60 -8.64 60 -10 60 C-10 59.34 -10 58.68 -10 58 C-10.66 58 -11.32 58 -12 58 C-12 57.34 -12 56.68 -12 56 C-12.66 56 -13.32 56 -14 56 C-14 55.34 -14 54.68 -14 54 C-14.66 54 -15.32 54 -16 54 C-16 53.34 -16 52.68 -16 52 C-16.66 52 -17.32 52 -18 52 C-18 50.68 -18 49.36 -18 48 C-18.66 48 -19.32 48 -20 48 C-20 46.68 -20 45.36 -20 44 C-20.66 44 -21.32 44 -22 44 C-22 42.02 -22 40.04 -22 38 C-22.66 38 -23.32 38 -24 38 C-24 33.38 -24 28.76 -24 24 C-23.34 24 -22.68 24 -22 24 C-22 22.68 -22 21.36 -22 20 C-21.34 20 -20.68 20 -20 20 C-20 18.68 -20 17.36 -20 16 C-19.34 16 -18.68 16 -18 16 C-18 15.34 -18 14.68 -18 14 C-17.34 14 -16.68 14 -16 14 C-16 13.34 -16 12.68 -16 12 C-15.34 12 -14.68 12 -14 12 C-14 11.34 -14 10.68 -14 10 C-13.34 10 -12.68 10 -12 10 C-12 9.34 -12 8.68 -12 8 C-11.34 8 -10.68 8 -10 8 C-10 7.34 -10 6.68 -10 6 C-9.34 6 -8.68 6 -8 6 C-8 5.34 -8 4.68 -8 4 C-6.68 4 -5.36 4 -4 4 C-4 3.34 -4 2.68 -4 2 C-2.68 2 -1.36 2 0 2 C0 1.34 0 0.68 0 0 Z " fill="#EFEEF0" transform="translate(354,714)"/>
<path d="M0 0 C6.6 0 13.2 0 20 0 C20 0.66 20 1.32 20 2 C21.98 2 23.96 2 26 2 C26 2.66 26 3.32 26 4 C26.66 4 27.32 4 28 4 C28 4.66 28 5.32 28 6 C29.32 6 30.64 6 32 6 C32 6.66 32 7.32 32 8 C32.66 8 33.32 8 34 8 C34 8.66 34 9.32 34 10 C34.66 10 35.32 10 36 10 C36 11.32 36 12.64 36 14 C36.66 14 37.32 14 38 14 C38 14.66 38 15.32 38 16 C38.66 16 39.32 16 40 16 C40 17.32 40 18.64 40 20 C40.66 20 41.32 20 42 20 C42 26.6 42 33.2 42 40 C41.34 40 40.68 40 40 40 C40 41.98 40 43.96 40 46 C39.34 46 38.68 46 38 46 C38 47.32 38 48.64 38 50 C37.34 50 36.68 50 36 50 C36 50.66 36 51.32 36 52 C35.34 52 34.68 52 34 52 C34 52.66 34 53.32 34 54 C33.34 54 32.68 54 32 54 C32 54.66 32 55.32 32 56 C31.34 56 30.68 56 30 56 C30 56.66 30 57.32 30 58 C28.68 58 27.36 58 26 58 C26 58.66 26 59.32 26 60 C24.68 60 23.36 60 22 60 C22 60.66 22 61.32 22 62 C20.02 62 18.04 62 16 62 C16 62.66 16 63.32 16 64 C12.04 64 8.08 64 4 64 C4 63.34 4 62.68 4 62 C2.02 62 0.04 62 -2 62 C-2 61.34 -2 60.68 -2 60 C-3.32 60 -4.64 60 -6 60 C-6 59.34 -6 58.68 -6 58 C-6.66 58 -7.32 58 -8 58 C-8 57.34 -8 56.68 -8 56 C-8.66 56 -9.32 56 -10 56 C-10 55.34 -10 54.68 -10 54 C-10.66 54 -11.32 54 -12 54 C-12 53.34 -12 52.68 -12 52 C-12.66 52 -13.32 52 -14 52 C-14 51.34 -14 50.68 -14 50 C-14.66 50 -15.32 50 -16 50 C-16 49.34 -16 48.68 -16 48 C-16.66 48 -17.32 48 -18 48 C-18 46.68 -18 45.36 -18 44 C-18.66 44 -19.32 44 -20 44 C-20 42.02 -20 40.04 -20 38 C-20.66 38 -21.32 38 -22 38 C-22 33.38 -22 28.76 -22 24 C-21.34 24 -20.68 24 -20 24 C-20 22.02 -20 20.04 -20 18 C-19.34 18 -18.68 18 -18 18 C-18 17.34 -18 16.68 -18 16 C-17.34 16 -16.68 16 -16 16 C-16 14.68 -16 13.36 -16 12 C-15.34 12 -14.68 12 -14 12 C-14 11.34 -14 10.68 -14 10 C-13.34 10 -12.68 10 -12 10 C-12 9.34 -12 8.68 -12 8 C-11.34 8 -10.68 8 -10 8 C-10 7.34 -10 6.68 -10 6 C-9.34 6 -8.68 6 -8 6 C-8 5.34 -8 4.68 -8 4 C-6.68 4 -5.36 4 -4 4 C-4 3.34 -4 2.68 -4 2 C-2.68 2 -1.36 2 0 2 C0 1.34 0 0.68 0 0 Z " fill="#EFEEF0" transform="translate(352,502)"/>
<path d="M0 0 C124.08 0 248.16 0 376 0 C376 65.34 376 130.68 376 198 C375.34 198 374.68 198 374 198 C374 134.64 374 71.28 374 6 C308.08494892 6.14862651 308.08494892 6.14862651 242.16992188 6.30664062 C233.29549172 6.32860818 224.42106142 6.3505134 215.54663086 6.37231445 C213.87811916 6.37641723 213.87811916 6.37641723 212.17590016 6.3806029 C194.19305472 6.42473076 176.21020296 6.46533629 158.22734643 6.50465261 C139.78665952 6.54504785 121.3459844 6.58920091 102.90531486 6.63687855 C91.51671734 6.6662038 80.12812076 6.69256056 68.73950791 6.71517897 C60.94116473 6.73094705 53.142836 6.7503489 45.34450883 6.77266841 C40.8381677 6.78545678 36.33183776 6.79658548 31.82548332 6.80341911 C27.70698658 6.80969974 23.58852837 6.82050146 19.47005271 6.8350333 C17.97341374 6.83949197 16.47676855 6.84223337 14.98012323 6.84316199 C12.9591044 6.84465696 10.93809363 6.85278686 8.91709232 6.8613348 C7.7904621 6.86399284 6.66383188 6.86665089 5.50306135 6.86938947 C3.0600079 6.71689238 3.0600079 6.71689238 2 8 C-0.67058851 8.14115161 -3.32432238 8.04247107 -6 8 C-6 8.66 -6 9.32 -6 10 C-7.98 10 -9.96 10 -12 10 C-12 10.66 -12 11.32 -12 12 C-13.32 12 -14.64 12 -16 12 C-16 12.66 -16 13.32 -16 14 C-17.32 14 -18.64 14 -20 14 C-20 14.66 -20 15.32 -20 16 C-20.66 16 -21.32 16 -22 16 C-22.66 17.32 -23.32 18.64 -24 20 C-25.32 20 -26.64 20 -28 20 C-28 20.66 -28 21.32 -28 22 C-28.66 22 -29.32 22 -30 22 C-30 22.66 -30 23.32 -30 24 C-30.66 24 -31.32 24 -32 24 C-32 24.66 -32 25.32 -32 26 C-32.66 26 -33.32 26 -34 26 C-34 26.66 -34 27.32 -34 28 C-34.66 28 -35.32 28 -36 28 C-36 28.66 -36 29.32 -36 30 C-36.66 30 -37.32 30 -38 30 C-38.495 32.475 -38.495 32.475 -39 35 C-40.485 35.495 -40.485 35.495 -42 36 C-42 37.32 -42 38.64 -42 40 C-42.66 40 -43.32 40 -44 40 C-44.12375 40.7425 -44.2475 41.485 -44.375 42.25 C-45 45 -45 45 -46 46.875 C-47.18586464 49.11582057 -47.18586464 49.11582057 -47.4375 52.3125 C-48.05963166 56.39091865 -49.25722337 59.28712806 -51 63 C-51.33 63 -51.66 63 -52 63 C-52 59.37 -52 55.74 -52 52 C-51.34 52 -50.68 52 -50 52 C-50 49.36 -50 46.72 -50 44 C-49.34 44 -48.68 44 -48 44 C-48 42.68 -48 41.36 -48 40 C-47.34 40 -46.68 40 -46 40 C-46 38.02 -46 36.04 -46 34 C-45.34 34 -44.68 34 -44 34 C-44 33.34 -44 32.68 -44 32 C-43.34 32 -42.68 32 -42 32 C-42 30.68 -42 29.36 -42 28 C-41.34 28 -40.68 28 -40 28 C-40 27.34 -40 26.68 -40 26 C-39.34 26 -38.68 26 -38 26 C-38 24.68 -38 23.36 -38 22 C-37.34 22 -36.68 22 -36 22 C-36 21.34 -36 20.68 -36 20 C-35.34 20 -34.68 20 -34 20 C-34 19.34 -34 18.68 -34 18 C-33.34 18 -32.68 18 -32 18 C-32 17.34 -32 16.68 -32 16 C-31.34 16 -30.68 16 -30 16 C-30 15.34 -30 14.68 -30 14 C-28.68 14 -27.36 14 -26 14 C-26 13.34 -26 12.68 -26 12 C-25.34 12 -24.68 12 -24 12 C-24 11.34 -24 10.68 -24 10 C-22.68 10 -21.36 10 -20 10 C-20 9.34 -20 8.68 -20 8 C-19.34 8 -18.68 8 -18 8 C-18 7.34 -18 6.68 -18 6 C-16.02 6 -14.04 6 -12 6 C-12 5.34 -12 4.68 -12 4 C-10.68 4 -9.36 4 -8 4 C-8 3.34 -8 2.68 -8 2 C-5.36 2 -2.72 2 0 2 C0 1.34 0 0.68 0 0 Z " fill="#8E6DC9" transform="translate(222,42)"/>
<path d="M0 0 C0.66 0 1.32 0 2 0 C2 1.32 2 2.64 2 4 C-64 4 -130 4 -198 4 C-198 3.34 -198 2.68 -198 2 C-132.66 2 -67.32 2 0 2 C0 1.34 0 0.68 0 0 Z " fill="#755AB2" transform="translate(852,296)"/>
<path d="M0 0 C0.66 0 1.32 0 2 0 C1.34 1.32 0.68 2.64 0 4 C-0.66 4 -1.32 4 -2 4 C-2 5.32 -2 6.64 -2 8 C-2.66 8 -3.32 8 -4 8 C-4 6.02 -4 4.04 -4 2 C-2.68 2 -1.36 2 0 2 C0 1.34 0 0.68 0 0 Z " fill="#8662C5" transform="translate(182,74)"/>
</svg>
